<svg xmlns="http://www.w3.org/2000/svg" width="346" height="135" viewBox="0 0 346 135" version="1.1"><path d="M 177.273 28.512 C 168.091 30.507, 155.109 34.606, 142.337 39.542 C 129.731 44.414, 112.768 52.101, 113.347 52.680 C 113.553 52.887, 115.023 52.548, 116.611 51.928 C 133.074 45.499, 157.368 38.023, 173.500 34.421 C 188.944 30.973, 215.607 32.610, 246.710 38.917 C 259.502 41.510, 306.969 54.022, 311.500 55.994 C 313.354 56.801, 313.321 56.870, 311.061 56.932 C 309.719 56.970, 302.744 56.044, 295.561 54.876 C 278.779 52.146, 265.428 52.691, 244.091 56.978 C 235.616 58.681, 224.366 60.343, 219.091 60.671 C 213.816 60.999, 208.825 61.686, 208 62.197 C 205.582 63.695, 232.736 62.162, 247.371 59.975 C 265.720 57.233, 278.560 57.408, 295.595 60.631 C 311.375 63.616, 315.403 63.313, 325.479 58.379 C 330.775 55.786, 341 46.967, 341 44.993 C 341 44.499, 338.742 45.267, 335.982 46.699 C 332.351 48.583, 328.965 49.420, 323.732 49.726 C 317.273 50.104, 314.309 49.539, 296 44.435 C 255.991 33.282, 247.946 31.512, 223.530 28.484 C 208.888 26.669, 185.692 26.683, 177.273 28.512 M 257.897 47.437 C 257.656 47.677, 245.994 49.117, 231.980 50.637 C 208.078 53.228, 203.434 53.412, 157 53.607 C 103.916 53.830, 91.963 54.267, 76.789 56.537 C 52.576 60.160, 24.528 67.885, 9.794 74.988 C 6.332 76.657, 4.400 77.755, 5.500 77.428 C 6.600 77.101, 13.350 75.272, 20.500 73.364 C 27.650 71.456, 36.425 69.035, 40 67.985 C 43.575 66.935, 49.016 65.854, 52.091 65.583 C 55.167 65.311, 60.567 64.637, 64.091 64.085 C 81.134 61.414, 95.593 60.760, 142 60.562 C 197.079 60.326, 203.886 59.772, 241.955 52.429 C 259.988 48.951, 266.503 47.096, 260.917 47.030 C 259.496 47.014, 258.137 47.197, 257.897 47.437 M 41.247 69.412 C 32.243 71.882, 15.644 79.615, 16.472 80.954 C 16.979 81.775, 36.649 78.015, 42.482 75.982 C 45.461 74.944, 52 69.325, 52 67.804 C 52 66.650, 50.504 66.874, 41.247 69.412 M 130.500 109.048 C 122.250 109.430, 112.822 109.800, 109.550 109.871 C 104.873 109.972, 103.861 110.261, 104.818 111.218 C 106.615 113.015, 198.684 112.936, 221.882 111.119 C 231.442 110.369, 240.442 109.400, 241.882 108.964 C 245.057 108.003, 151.570 108.074, 130.500 109.048" stroke="none" fill="#f6f6f6" fill-rule="evenodd"/></svg>